<svg xmlns="http://www.w3.org/2000/svg" viewBox="0 0 223.73 31.08"><defs><style>.cls-1{fill:#1d1d1b;}</style></defs><title>Recurso 20</title><g id="Capa_2" data-name="Capa 2"><g id="Capa_1-2" data-name="Capa 1"><path class="cls-1" d="M29.1,30.46H0V23.17H2.41V7.29H0V0H29.1V9.75h-8V7.29H14.19V12h6v6.2h-6v5h6.92V20.72h8Z"/><path class="cls-1" d="M52.76,21.75,61,23.59a9.17,9.17,0,0,1-4.43,5.51,16.77,16.77,0,0,1-8.49,2q-6.7,0-10.56-3A9.75,9.75,0,0,1,33.64,20a10.12,10.12,0,0,1,3.59-8,13.11,13.11,0,0,1,9-3.11c3,0,5.38.6,7,1.81V9.22h6.72v9.07H53.22Q52,14.65,49,14.65a3.58,3.58,0,0,0-3.11,1.56,6.66,6.66,0,0,0-1.1,3.87A5.92,5.92,0,0,0,46,24a3.7,3.7,0,0,0,3,1.42Q52.05,25.4,52.76,21.75Z"/><path class="cls-1" d="M64.43,19.73a9.83,9.83,0,0,1,3.94-7.9Q72.32,8.61,79,8.61t11,3.11a9.62,9.62,0,0,1,4.22,8.1,9.9,9.9,0,0,1-4,8q-4,3.21-10.64,3.22-7.14,0-11.13-3.22A10,10,0,0,1,64.43,19.73Zm11.15.05c0,3.38,1.21,5.08,3.63,5.08q3.86,0,3.86-5.13a6.05,6.05,0,0,0-.95-3.63,3.18,3.18,0,0,0-2.71-1.3,3.44,3.44,0,0,0-2.78,1.27A5.7,5.7,0,0,0,75.58,19.78Z"/><path class="cls-1" d="M115.83,30.46H97.32V23.17h3.2V7.29H97.21V0h30V10h-8.1V7.29H112.3V12h5.26v6.2H112.3v5h3.53Z"/><path class="cls-1" d="M124,19.73a9.83,9.83,0,0,1,3.94-7.9q3.94-3.22,10.64-3.22t11,3.11a9.6,9.6,0,0,1,4.23,8.1,9.9,9.9,0,0,1-4,8q-4,3.21-10.64,3.22-7.14,0-11.13-3.22A10,10,0,0,1,124,19.73Zm11.14.05c0,3.38,1.21,5.08,3.64,5.08s3.85-1.71,3.85-5.13a6.05,6.05,0,0,0-.94-3.63A3.2,3.2,0,0,0,139,14.8a3.45,3.45,0,0,0-2.78,1.27A5.7,5.7,0,0,0,135.14,19.78Z"/><path class="cls-1" d="M157.63,19.73a9.84,9.84,0,0,1,4-7.9q3.93-3.22,10.64-3.22t11,3.11a9.6,9.6,0,0,1,4.23,8.1,9.93,9.93,0,0,1-4,8q-4,3.21-10.65,3.22-7.14,0-11.12-3.22A10,10,0,0,1,157.63,19.73Zm11.15.05c0,3.38,1.21,5.08,3.64,5.08s3.85-1.71,3.85-5.13a6.05,6.05,0,0,0-.94-3.63,3.2,3.2,0,0,0-2.72-1.3,3.45,3.45,0,0,0-2.78,1.27A5.7,5.7,0,0,0,168.78,19.78Z"/><path class="cls-1" d="M223.73,23.78v6.68H210V29a13.65,13.65,0,0,1-7.09,1.82,12.46,12.46,0,0,1-8-2.74,9.41,9.41,0,0,1-3.46-7.84q0-5.51,3.19-8.5a12.14,12.14,0,0,1,8.57-2.95A12.46,12.46,0,0,1,210,10.58V6.68h-2.71V0H221V23.78Zm-13.71-4a5.8,5.8,0,0,0-.92-3.33,3.15,3.15,0,0,0-2.74-1.31c-2.5,0-3.74,1.61-3.74,4.84a5.58,5.58,0,0,0,.91,3.29,3.11,3.11,0,0,0,2.74,1.31A3.52,3.52,0,0,0,209,23.39,5.42,5.42,0,0,0,210,19.75Z"/></g></g></svg>